<svg xmlns="http://www.w3.org/2000/svg" width="18" height="19" fill="none" viewBox="0 0 18 19">
    <path fill="#fff" d="M14.307 13.43c-.725 0-1.373.286-1.87.734l-6.8-3.958c.048-.22.086-.439.086-.668 0-.229-.038-.448-.086-.668l6.724-3.92a2.85 2.85 0 0 0 1.946.773A2.858 2.858 0 0 0 17.17 2.86 2.858 2.858 0 0 0 14.307 0a2.858 2.858 0 0 0-2.861 2.861c0 .23.038.449.086.668L4.807 7.45a2.85 2.85 0 0 0-1.946-.772A2.858 2.858 0 0 0 0 9.538 2.858 2.858 0 0 0 2.861 12.4a2.85 2.85 0 0 0 1.946-.773l6.791 3.968c-.047.2-.076.41-.076.62A2.788 2.788 0 0 0 14.307 19a2.788 2.788 0 0 0 2.785-2.785 2.788 2.788 0 0 0-2.785-2.785z"/>
</svg>
