<svg xmlns="http://www.w3.org/2000/svg" width="32" height="31" fill="none" viewBox="0 0 32 31">
    <path fill="#0B5ED7" d="M15.505 0a15.5 15.5 0 1 0-.01 31 15.5 15.5 0 0 0 .01-31zm5.879 8.727s-.505-.02-2.243 0c-1.696.02-1.717 1.292-1.717 1.354l-.02 3.22 3.978.081-.586 4.111h-3.374l-.103 8.697h-4.087l-.121-8.677-3.586-.02.091-4.191h3.536v-3.03c.01-.323.04-.645.08-.969a6.096 6.096 0 0 1 .617-2.05 4.312 4.312 0 0 1 1.192-1.405 4.879 4.879 0 0 1 1.717-.808c.43-.125.875-.196 1.323-.212.575-.02 2.838.052 3.404.06l-.101 3.839z"/>
</svg>
