<svg xmlns="http://www.w3.org/2000/svg" width="17" height="17" fill="none" viewBox="0 0 17 17">
    <path fill="#fff" d="M16.723 15.375a.943.943 0 1 1-1.335 1.335l-3.34-3.337a.943.943 0 1 1 1.336-1.334l3.34 3.336z"/>
    <path fill="#fff" fill-rule="evenodd" d="M0 7.55c0 4.169 3.383 7.549 7.556 7.549a7.553 7.553 0 0 0 7.555-7.55C15.111 3.38 11.728 0 7.556 0A7.553 7.553 0 0 0 0 7.55zm13.222 0a5.665 5.665 0 0 1-5.666 5.661A5.665 5.665 0 0 1 1.889 7.55a5.664 5.664 0 0 1 5.667-5.662 5.664 5.664 0 0 1 5.666 5.662z" clip-rule="evenodd"/>
</svg>
