<svg xmlns="http://www.w3.org/2000/svg" width="16" height="16" fill="none" viewBox="0 0 16 16">
    <path fill="#888" fill-rule="evenodd" d="M14.148 7.637c-1-2.188-3.54-3.637-6.4-3.637C4.89 4 2.35 5.45 1.35 7.637a.688.688 0 0 0 0 .57c1 2.187 3.54 3.637 6.399 3.637 2.858 0 5.4-1.45 6.399-3.637a.688.688 0 0 0 0-.57zM2.66 7.922c.865-1.537 2.838-2.589 5.089-2.589 2.25 0 4.224 1.052 5.089 2.589C11.973 9.459 10 10.51 7.749 10.51c-2.25 0-4.223-1.052-5.089-2.59z" clip-rule="evenodd"/>
    <path fill="#888" fill-rule="evenodd" d="M10.007 7.922c0 1.29-1.01 2.336-2.257 2.336-1.248 0-2.259-1.045-2.259-2.336 0-1.29 1.011-2.336 2.259-2.336 1.246 0 2.257 1.045 2.257 2.336z" clip-rule="evenodd"/>
</svg>
