<svg xmlns="http://www.w3.org/2000/svg" width="32" height="31" fill="none" viewBox="0 0 32 31">
    <path fill="#0B5ED7" d="M15.374 12.854a2.772 2.772 0 1 1 0 5.544 2.772 2.772 0 0 1 0-5.544z"/>
    <path fill="#0B5ED7" d="M18.84 8.821h-6.932a3.443 3.443 0 0 0-2.457.882 3.444 3.444 0 0 0-.882 2.457v6.931a3.473 3.473 0 0 0 .945 2.52c.677.596 1.556.911 2.457.883h6.868a3.443 3.443 0 0 0 2.457-.882 3.228 3.228 0 0 0 .945-2.458v-6.93a3.552 3.552 0 0 0-.882-2.458 3.375 3.375 0 0 0-2.52-.945zm-3.466 11.09a4.285 4.285 0 0 1 0-8.57 4.285 4.285 0 1 1 0 8.57zm4.473-7.75a1.008 1.008 0 1 1 1.008-1.009.996.996 0 0 1-1.008 1.008z"/>
    <path fill="#0B5ED7" d="M15.5 0A15.5 15.5 0 1 0 31 15.5 15.49 15.49 0 0 0 15.5 0zm8.254 19.154a4.993 4.993 0 0 1-1.386 3.592 4.905 4.905 0 0 1-3.529 1.323h-6.868a4.903 4.903 0 0 1-3.528-1.323 4.748 4.748 0 0 1-1.386-3.592v-6.93c0-2.899 1.953-4.915 4.914-4.915h6.931a4.647 4.647 0 0 1 4.852 4.915v6.93z"/>
</svg>
