<svg xmlns="http://www.w3.org/2000/svg" width="32" height="32" fill="none" viewBox="0 0 32 32">
    <path fill="#0B5ED7" d="M13.326 13.117a.433.433 0 0 0-.336.143.617.617 0 0 0-.13.427v3.66a.617.617 0 0 0 .131.43.43.43 0 0 0 .335.144.444.444 0 0 0 .343-.143.618.618 0 0 0 .131-.431v-3.66a.612.612 0 0 0-.13-.43.449.449 0 0 0-.344-.14zM18.316 13.117a.39.39 0 0 0-.312.135.606.606 0 0 0-.115.404v2.764l-1.81-2.738-.147-.232a1.126 1.126 0 0 0-.14-.18.528.528 0 0 0-.16-.112.522.522 0 0 0-.216-.04.541.541 0 0 0-.301.09.511.511 0 0 0-.2.232 1.023 1.023 0 0 0-.05.358v3.584a.59.59 0 0 0 .12.4.403.403 0 0 0 .32.139.409.409 0 0 0 .317-.137.579.579 0 0 0 .124-.402v-2.72l1.765 2.706c.05.075.101.147.152.218.048.067.103.13.165.185a.582.582 0 0 0 .418.152c.339 0 .508-.204.507-.611v-3.656a.603.603 0 0 0-.117-.404.405.405 0 0 0-.32-.135zM11.732 17.069H9.824v-3.382a.61.61 0 0 0-.132-.43.448.448 0 0 0-.343-.14.43.43 0 0 0-.337.143.62.62 0 0 0-.129.426v3.578a.492.492 0 0 0 .578.578h2.272a.515.515 0 0 0 .352-.107.354.354 0 0 0 .12-.277.361.361 0 0 0-.122-.279.504.504 0 0 0-.351-.11z"/>
    <path fill="#0B5ED7" d="M16 0a16 16 0 1 0 0 32 16 16 0 0 0 0-32zm9.644 17.038a8.333 8.333 0 0 1-2.6 3.58 44.487 44.487 0 0 1-4.974 3.786c-2.335 1.665-2.832 1.535-3.04 1.326-.224-.228.414-1.205.47-2.1.03-.486-.462-.632-.602-.657-5.05-.458-8.98-4.037-8.98-8.386 0-4.659 4.512-8.437 10.08-8.437 5.567 0 10.078 3.777 10.078 8.437a6.147 6.147 0 0 1-.432 2.451z"/>
    <path fill="#0B5ED7" d="M22.918 17.094h-2.193v-1.32h1.952a.453.453 0 0 0 .32-.1.339.339 0 0 0 .107-.258.328.328 0 0 0-.107-.255.467.467 0 0 0-.32-.096h-1.952v-1.142h2.12c.12.01.238-.026.334-.1a.34.34 0 0 0 .106-.267.336.336 0 0 0-.106-.261.484.484 0 0 0-.335-.1H20.36a.797.797 0 0 0-.328.059.377.377 0 0 0-.188.187.784.784 0 0 0-.06.331v3.495a.61.61 0 0 0 .134.44.604.604 0 0 0 .442.137h2.56a.48.48 0 0 0 .334-.103.346.346 0 0 0 .113-.267.355.355 0 0 0-.113-.274.476.476 0 0 0-.336-.106z"/>
</svg>
