<svg xmlns="http://www.w3.org/2000/svg" width="79" height="15" fill="none" viewBox="0 0 79 15">
    <path fill="none" d="M-7.886-7.886h93.65v30.56h-93.65z"/>
    <path fill="#00D54D" d="M1.372 11.688c-.378 0-.704-.132-.978-.395A1.362 1.362 0 0 1 0 10.316c0-.38.131-.7.394-.963.274-.263.6-.394.978-.394.379 0 .7.131.962.394.274.263.41.584.41.963 0 .378-.136.704-.41.977a1.309 1.309 0 0 1-.962.395z"/>
    <path fill="#0B5ED7" d="M4.923.3H8.74c1.178 0 2.203.236 3.076.71a4.966 4.966 0 0 1 2.019 1.987c.473.852.71 1.835.71 2.95 0 1.114-.237 2.097-.71 2.949a4.966 4.966 0 0 1-2.019 1.987c-.873.474-1.898.71-3.076.71H4.923V.3zm3.723 9.274c1.22 0 2.15-.32 2.791-.962.642-.652.963-1.54.963-2.666 0-1.125-.321-2.008-.963-2.65-.64-.651-1.572-.977-2.791-.977H7.053v7.255h1.593zm8.805-6.908a1.29 1.29 0 0 1-.946-.395 1.291 1.291 0 0 1-.394-.946c0-.368.131-.678.394-.93A1.29 1.29 0 0 1 17.451 0c.368 0 .679.131.93.394.264.253.395.563.395.93 0 .369-.131.684-.394.947a1.24 1.24 0 0 1-.93.395zm-1.04.883h2.066v8.044H16.41V3.55zm4.232-3.25h2.066v6.152h.11l2.887-2.902h2.54v.126l-3.044 2.981 3.186 4.81v.127h-2.445L23.75 8.076 22.71 9.1v2.492h-2.067V.3zM31.76 11.846c-.851 0-1.55-.247-2.097-.74-.547-.506-.82-1.163-.82-1.973 0-.536.142-1.009.425-1.42.284-.41.673-.725 1.168-.945a3.976 3.976 0 0 1 1.64-.332c.83 0 1.54.121 2.13.363v-.347c0-.442-.169-.8-.505-1.072-.327-.274-.768-.41-1.325-.41-.379 0-.747.089-1.104.268a2.52 2.52 0 0 0-.868.678l-1.325-1.041a3.891 3.891 0 0 1 1.467-1.167 4.513 4.513 0 0 1 1.924-.41c1.23 0 2.166.283 2.808.851.641.568.962 1.399.962 2.492v4.953h-2.035v-.82h-.126a2.721 2.721 0 0 1-.962.773c-.39.2-.841.3-1.356.3zm.49-1.608c.599 0 1.072-.19 1.419-.568.358-.39.536-.841.536-1.357a3.917 3.917 0 0 0-1.687-.378c-1.073 0-1.61.4-1.61 1.198 0 .327.116.595.348.805.231.2.562.3.993.3zm5.891-6.688h1.94v1.01h.127c.252-.39.588-.695 1.009-.915.431-.232.91-.347 1.435-.347.568 0 1.062.136 1.483.41.42.263.72.599.9 1.01.262-.422.62-.763 1.072-1.026.462-.263 1.004-.394 1.624-.394.915 0 1.609.283 2.082.851.484.558.726 1.315.726 2.272v5.173h-2.05V6.798c0-.505-.122-.894-.363-1.167-.232-.273-.558-.41-.978-.41-.537 0-.968.215-1.294.647-.315.42-.473.977-.473 1.671v4.054h-2.066V6.798c0-.505-.126-.894-.379-1.167-.242-.273-.589-.41-1.04-.41-.505 0-.916.215-1.231.647-.305.42-.457.977-.457 1.671v4.054H38.14V3.55zm14.308 0h1.94v.978h.127c.22-.347.541-.636.962-.868.42-.242.904-.362 1.45-.362.726 0 1.384.184 1.973.552a3.69 3.69 0 0 1 1.403 1.514c.337.652.505 1.388.505 2.208 0 .83-.168 1.572-.505 2.224a3.824 3.824 0 0 1-1.404 1.514 3.724 3.724 0 0 1-1.971.536 3.053 3.053 0 0 1-1.467-.347c-.42-.23-.736-.52-.946-.867h-.127l.127 1.136V15h-2.067V3.549zm4.117 6.388c.39 0 .752-.1 1.088-.3.337-.2.605-.478.805-.836.2-.357.3-.767.3-1.23 0-.463-.1-.873-.3-1.23a2.08 2.08 0 0 0-.805-.82 2.094 2.094 0 0 0-2.16 0c-.337.189-.605.462-.805.82-.2.357-.3.767-.3 1.23 0 .463.1.873.3 1.23.2.358.468.636.804.836.337.2.694.3 1.073.3zm8.66 1.908c-.967 0-1.703-.3-2.208-.899-.504-.599-.757-1.435-.757-2.508v-4.89h2.066v4.638c0 .547.132.978.395 1.293.263.305.61.458 1.04.458.59 0 1.058-.216 1.405-.647.347-.43.52-.978.52-1.64V3.549h2.066v8.044h-1.94v-1.01h-.126c-.242.39-.583.7-1.025.931-.431.221-.91.331-1.435.331zm9.523 0c-.977 0-1.771-.2-2.381-.599-.6-.4-1.02-.92-1.262-1.561l1.845-.805c.169.379.405.668.71.868.316.189.678.284 1.088.284.379 0 .695-.058.947-.174.252-.126.378-.326.378-.6a.622.622 0 0 0-.347-.583c-.231-.137-.578-.258-1.04-.363l-.947-.205c-.652-.157-1.194-.441-1.625-.851-.43-.421-.646-.942-.646-1.562 0-.463.136-.878.41-1.246a2.752 2.752 0 0 1 1.135-.852c.484-.2 1.015-.3 1.594-.3 1.66 0 2.77.584 3.328 1.751l-1.767.773c-.316-.568-.82-.852-1.514-.852-.358 0-.642.069-.852.205-.21.127-.315.29-.315.49 0 .378.357.662 1.072.851l1.183.284c.8.2 1.399.505 1.798.915.41.41.615.915.615 1.514 0 .515-.152.973-.457 1.372-.294.39-.705.694-1.23.915a4.322 4.322 0 0 1-1.72.331z"/>
</svg>
