<svg xmlns="http://www.w3.org/2000/svg" width="11" height="16" fill="none" viewBox="0 0 11 16">
    <path fill="#000" fill-opacity="0" d="M-3.928-1.572h18.857v18.858H-3.928z"/>
    <path fill="#000" fill-opacity="0" d="M0 0h11v15.715H0z"/>
    <path fill="#000" fill-opacity="0" d="M0 0h11v15.715H0z"/>
    <path fill="#FF2D55" d="M5.5 0C2.46 0 0 2.46 0 5.5c0 4.125 5.5 10.214 5.5 10.214S11 9.625 11 5.5C11 2.46 8.54 0 5.5 0zM1.571 5.5A3.93 3.93 0 0 1 5.5 1.571 3.93 3.93 0 0 1 9.429 5.5c0 2.263-2.263 5.65-3.929 7.763C3.866 11.165 1.571 7.739 1.571 5.5z"/>
    <path fill="#FF2D55" d="M5.5 7.464a1.964 1.964 0 1 0 0-3.928 1.964 1.964 0 0 0 0 3.928z"/>
</svg>
