<svg xmlns="http://www.w3.org/2000/svg" width="16" height="20" fill="none" viewBox="0 0 16 20">
    <path fill="#fff" d="M12.814 2.928a17.306 17.306 0 0 0-2.35-2.79c-.342-.332-.92-.02-.822.45.186.92.382 2.135.382 3.221 0 2.017-1.322 3.652-3.338 3.652-1.508 0-2.741-.91-3.28-2.213a2.442 2.442 0 0 1-.195-.528c-.108-.411-.646-.539-.881-.177a11.26 11.26 0 0 0-.5.813A13.481 13.481 0 0 0 0 12.169 7.829 7.829 0 0 0 7.831 20a7.829 7.829 0 0 0 7.831-7.831c0-3.416-1.057-6.588-2.848-9.24zM7.547 17.063c-1.742 0-3.152-1.37-3.152-3.073 0-1.586 1.028-2.702 2.75-3.054 1.44-.294 2.918-.91 3.946-1.88.274-.254.724-.137.802.225.226.999.343 2.036.343 3.084a4.685 4.685 0 0 1-4.689 4.698z"/>
</svg>
