<svg xmlns="http://www.w3.org/2000/svg" width="21" height="21" fill="none" viewBox="0 0 21 21">
    <path fill="#00D54D" d="M0 4.266c0 .543.44.984.984.984h3.282c.543 0 .984-.44.984-.984V.984A.984.984 0 0 0 4.266 0H.984A.984.984 0 0 0 0 .984v3.282zm7.875 15.75c0 .543.44.984.984.984h3.282c.543 0 .984-.44.984-.984v-3.282a.984.984 0 0 0-.984-.984H8.859a.984.984 0 0 0-.984.984v3.282zm-7.875 0c0 .543.44.984.984.984h3.282c.543 0 .984-.44.984-.984v-3.282a.984.984 0 0 0-.984-.984H.984a.984.984 0 0 0-.984.984v3.282zm0-7.875c0 .543.44.984.984.984h3.282c.543 0 .984-.44.984-.984V8.859a.984.984 0 0 0-.984-.984H.984A.984.984 0 0 0 0 8.859v3.282zm7.875 0c0 .543.44.984.984.984h3.282c.543 0 .984-.44.984-.984V8.859a.984.984 0 0 0-.984-.984H8.859a.984.984 0 0 0-.984.984v3.282zM16.735 0a.984.984 0 0 0-.985.984v3.282c0 .543.44.984.984.984h3.282c.543 0 .984-.44.984-.984V.984A.984.984 0 0 0 20.016 0h-3.282zm-8.86 4.266c0 .543.44.984.984.984h3.282c.543 0 .984-.44.984-.984V.984A.984.984 0 0 0 12.141 0H8.859a.984.984 0 0 0-.984.984v3.282zm7.875 7.875c0 .543.44.984.984.984h3.282c.543 0 .984-.44.984-.984V8.859a.984.984 0 0 0-.984-.984h-3.282a.984.984 0 0 0-.984.984v3.282zm0 7.875c0 .543.44.984.984.984h3.282c.543 0 .984-.44.984-.984v-3.282a.984.984 0 0 0-.984-.984h-3.282a.984.984 0 0 0-.984.984v3.282z"/>
</svg>
