<svg xmlns="http://www.w3.org/2000/svg" width="27" height="28" fill="none" viewBox="0 0 27 28">
    <path fill="#fff" d="M5.984 16.317l-.94 3.508-3.435.073A13.44 13.44 0 0 1 0 13.5c0-2.239.544-4.35 1.51-6.208l3.058.56 1.34 3.04a8.025 8.025 0 0 0-.433 2.608c0 .991.18 1.94.509 2.817zM26.764 10.978c.155.817.236 1.66.236 2.522 0 .967-.102 1.91-.295 2.819a13.497 13.497 0 0 1-4.753 7.709h-.001l-3.852-.197-.545-3.404a8.046 8.046 0 0 0 3.462-4.108h-7.22v-5.34h12.968z"/>
    <path fill="#fff" d="M21.951 24.027A13.443 13.443 0 0 1 13.5 27a13.498 13.498 0 0 1-11.891-7.102l4.375-3.581a8.027 8.027 0 0 0 11.57 4.11l4.397 3.6zM22.117 3.108l-4.374 3.58a8.03 8.03 0 0 0-11.836 4.204l-4.397-3.6A13.496 13.496 0 0 1 13.5 0c3.275 0 6.279 1.167 8.617 3.108z"/>
</svg>
